<?xml version="1.0" encoding="UTF-8" standalone="no"?>
<!DOCTYPE svg PUBLIC "-//W3C//DTD SVG 1.1//EN"
 "http://www.w3.org/Graphics/SVG/1.1/DTD/svg11.dtd">
<!-- Generated by graphviz version 2.47.1 (0)
 -->
<!-- Pages: 1 -->
<svg width="2259pt" height="476pt"
 viewBox="0.00 0.00 2258.76 476.00" xmlns="http://www.w3.org/2000/svg" xmlns:xlink="http://www.w3.org/1999/xlink">
<g id="graph0" class="graph" transform="scale(1 1) rotate(0) translate(4 472)">
<polygon fill="white" stroke="transparent" points="-4,4 -4,-472 2254.76,-472 2254.76,4 -4,4"/>
<!-- [root] module.goEC2.aws_instance.ec2 (expand) -->
<g id="node1" class="node">
<title>[root] module.goEC2.aws_instance.ec2 (expand)</title>
<polygon fill="none" stroke="black" points="1533.68,-252 1284.68,-252 1284.68,-216 1533.68,-216 1533.68,-252"/>
<text text-anchor="middle" x="1409.18" y="-230.3" font-family="Times,serif" font-size="14.00">module.goEC2.aws_instance.ec2</text>
</g>
<!-- [root] module.goEC2.aws_security_group.allow_web (expand) -->
<g id="node2" class="node">
<title>[root] module.goEC2.aws_security_group.allow_web (expand)</title>
<polygon fill="none" stroke="black" points="968.18,-180 624.18,-180 624.18,-144 968.18,-144 968.18,-180"/>
<text text-anchor="middle" x="796.18" y="-158.3" font-family="Times,serif" font-size="14.00">module.goEC2.aws_security_group.allow_web</text>
</g>
<!-- [root] module.goEC2.aws_instance.ec2 (expand)&#45;&gt;[root] module.goEC2.aws_security_group.allow_web (expand) -->
<g id="edge3" class="edge">
<title>[root] module.goEC2.aws_instance.ec2 (expand)&#45;&gt;[root] module.goEC2.aws_security_group.allow_web (expand)</title>
<path fill="none" stroke="black" d="M1284.39,-218.75C1189.36,-207.9 1057.86,-192.88 955.28,-181.17"/>
<polygon fill="black" stroke="black" points="955.46,-177.67 945.13,-180.01 954.67,-184.62 955.46,-177.67"/>
</g>
<!-- [root] module.goEC2.data.aws_ami.app_ami (expand) -->
<g id="node3" class="node">
<title>[root] module.goEC2.data.aws_ami.app_ami (expand)</title>
<polygon fill="none" stroke="black" points="1292.18,-180 1006.18,-180 1006.18,-144 1292.18,-144 1292.18,-180"/>
<text text-anchor="middle" x="1149.18" y="-158.3" font-family="Times,serif" font-size="14.00">module.goEC2.data.aws_ami.app_ami</text>
</g>
<!-- [root] module.goEC2.aws_instance.ec2 (expand)&#45;&gt;[root] module.goEC2.data.aws_ami.app_ami (expand) -->
<g id="edge4" class="edge">
<title>[root] module.goEC2.aws_instance.ec2 (expand)&#45;&gt;[root] module.goEC2.data.aws_ami.app_ami (expand)</title>
<path fill="none" stroke="black" d="M1345.91,-215.97C1308.63,-205.93 1261.32,-193.19 1222.43,-182.72"/>
<polygon fill="black" stroke="black" points="1223.3,-179.33 1212.73,-180.11 1221.48,-186.09 1223.3,-179.33"/>
</g>
<!-- [root] module.goEC2.var.instanceType (expand) -->
<g id="node7" class="node">
<title>[root] module.goEC2.var.instanceType (expand)</title>
<ellipse fill="none" stroke="black" cx="1409.18" cy="-90" rx="232.06" ry="18"/>
<text text-anchor="middle" x="1409.18" y="-86.3" font-family="Times,serif" font-size="14.00">[root] module.goEC2.var.instanceType (expand)</text>
</g>
<!-- [root] module.goEC2.aws_instance.ec2 (expand)&#45;&gt;[root] module.goEC2.var.instanceType (expand) -->
<g id="edge5" class="edge">
<title>[root] module.goEC2.aws_instance.ec2 (expand)&#45;&gt;[root] module.goEC2.var.instanceType (expand)</title>
<path fill="none" stroke="black" d="M1409.18,-215.87C1409.18,-191.67 1409.18,-147.21 1409.18,-118.39"/>
<polygon fill="black" stroke="black" points="1412.68,-118.19 1409.18,-108.19 1405.68,-118.19 1412.68,-118.19"/>
</g>
<!-- [root] module.goEC2.var.keyName (expand) -->
<g id="node8" class="node">
<title>[root] module.goEC2.var.keyName (expand)</title>
<ellipse fill="none" stroke="black" cx="1873.18" cy="-90" rx="213.66" ry="18"/>
<text text-anchor="middle" x="1873.18" y="-86.3" font-family="Times,serif" font-size="14.00">[root] module.goEC2.var.keyName (expand)</text>
</g>
<!-- [root] module.goEC2.aws_instance.ec2 (expand)&#45;&gt;[root] module.goEC2.var.keyName (expand) -->
<g id="edge6" class="edge">
<title>[root] module.goEC2.aws_instance.ec2 (expand)&#45;&gt;[root] module.goEC2.var.keyName (expand)</title>
<path fill="none" stroke="black" d="M1465.15,-215.87C1551.89,-189.32 1718.29,-138.4 1809.5,-110.49"/>
<polygon fill="black" stroke="black" points="1810.63,-113.8 1819.17,-107.53 1808.58,-107.11 1810.63,-113.8"/>
</g>
<!-- [root] module.goEC2.var.region_and_az (expand) -->
<g id="node9" class="node">
<title>[root] module.goEC2.var.region_and_az (expand)</title>
<ellipse fill="none" stroke="black" cx="2014.18" cy="-162" rx="236.66" ry="18"/>
<text text-anchor="middle" x="2014.18" y="-158.3" font-family="Times,serif" font-size="14.00">[root] module.goEC2.var.region_and_az (expand)</text>
</g>
<!-- [root] module.goEC2.aws_instance.ec2 (expand)&#45;&gt;[root] module.goEC2.var.region_and_az (expand) -->
<g id="edge7" class="edge">
<title>[root] module.goEC2.aws_instance.ec2 (expand)&#45;&gt;[root] module.goEC2.var.region_and_az (expand)</title>
<path fill="none" stroke="black" d="M1533.8,-218.58C1634.73,-206.9 1776.64,-190.48 1880.04,-178.52"/>
<polygon fill="black" stroke="black" points="1880.71,-181.97 1890.24,-177.34 1879.9,-175.01 1880.71,-181.97"/>
</g>
<!-- [root] provider[&quot;registry.terraform.io/hashicorp/aws&quot;] -->
<g id="node4" class="node">
<title>[root] provider[&quot;registry.terraform.io/hashicorp/aws&quot;]</title>
<polygon fill="none" stroke="black" points="796.18,-108 470.92,-90 796.18,-72 1121.44,-90 796.18,-108"/>
<text text-anchor="middle" x="796.18" y="-86.3" font-family="Times,serif" font-size="14.00">provider[&quot;registry.terraform.io/hashicorp/aws&quot;]</text>
</g>
<!-- [root] module.goEC2.aws_security_group.allow_web (expand)&#45;&gt;[root] provider[&quot;registry.terraform.io/hashicorp/aws&quot;] -->
<g id="edge9" class="edge">
<title>[root] module.goEC2.aws_security_group.allow_web (expand)&#45;&gt;[root] provider[&quot;registry.terraform.io/hashicorp/aws&quot;]</title>
<path fill="none" stroke="black" d="M796.18,-143.7C796.18,-135.98 796.18,-126.71 796.18,-118.11"/>
<polygon fill="black" stroke="black" points="799.68,-118.1 796.18,-108.1 792.68,-118.1 799.68,-118.1"/>
</g>
<!-- [root] module.goEC2.var.commonTag (expand) -->
<g id="node10" class="node">
<title>[root] module.goEC2.var.commonTag (expand)</title>
<ellipse fill="none" stroke="black" cx="226.18" cy="-90" rx="226.36" ry="18"/>
<text text-anchor="middle" x="226.18" y="-86.3" font-family="Times,serif" font-size="14.00">[root] module.goEC2.var.commonTag (expand)</text>
</g>
<!-- [root] module.goEC2.aws_security_group.allow_web (expand)&#45;&gt;[root] module.goEC2.var.commonTag (expand) -->
<g id="edge8" class="edge">
<title>[root] module.goEC2.aws_security_group.allow_web (expand)&#45;&gt;[root] module.goEC2.var.commonTag (expand)</title>
<path fill="none" stroke="black" d="M657.47,-143.97C564.88,-132.6 444.03,-117.75 353.82,-106.68"/>
<polygon fill="black" stroke="black" points="354.16,-103.19 343.81,-105.45 353.31,-110.14 354.16,-103.19"/>
</g>
<!-- [root] module.goEC2.data.aws_ami.app_ami (expand)&#45;&gt;[root] provider[&quot;registry.terraform.io/hashicorp/aws&quot;] -->
<g id="edge11" class="edge">
<title>[root] module.goEC2.data.aws_ami.app_ami (expand)&#45;&gt;[root] provider[&quot;registry.terraform.io/hashicorp/aws&quot;]</title>
<path fill="none" stroke="black" d="M1063.28,-143.97C1005.23,-132.46 929.25,-117.39 873.18,-106.27"/>
<polygon fill="black" stroke="black" points="873.79,-102.82 863.3,-104.31 872.43,-109.69 873.79,-102.82"/>
</g>
<!-- [root] module.goEC2 (expand) -->
<g id="node11" class="node">
<title>[root] module.goEC2 (expand)</title>
<ellipse fill="none" stroke="black" cx="1409.18" cy="-18" rx="150.57" ry="18"/>
<text text-anchor="middle" x="1409.18" y="-14.3" font-family="Times,serif" font-size="14.00">[root] module.goEC2 (expand)</text>
</g>
<!-- [root] module.goEC2.data.aws_ami.app_ami (expand)&#45;&gt;[root] module.goEC2 (expand) -->
<g id="edge10" class="edge">
<title>[root] module.goEC2.data.aws_ami.app_ami (expand)&#45;&gt;[root] module.goEC2 (expand)</title>
<path fill="none" stroke="black" d="M1147.75,-143.71C1147.11,-123.66 1149.36,-90.94 1168.18,-72 1186.37,-53.7 1240.82,-40.88 1293.37,-32.44"/>
<polygon fill="black" stroke="black" points="1294.16,-35.86 1303.5,-30.87 1293.08,-28.95 1294.16,-35.86"/>
</g>
<!-- [root] meta.count&#45;boundary (EachMode fixup) -->
<g id="node5" class="node">
<title>[root] meta.count&#45;boundary (EachMode fixup)</title>
<ellipse fill="none" stroke="black" cx="1283.18" cy="-378" rx="222.86" ry="18"/>
<text text-anchor="middle" x="1283.18" y="-374.3" font-family="Times,serif" font-size="14.00">[root] meta.count&#45;boundary (EachMode fixup)</text>
</g>
<!-- [root] module.goEC2 (close) -->
<g id="node6" class="node">
<title>[root] module.goEC2 (close)</title>
<ellipse fill="none" stroke="black" cx="1184.18" cy="-306" rx="140.28" ry="18"/>
<text text-anchor="middle" x="1184.18" y="-302.3" font-family="Times,serif" font-size="14.00">[root] module.goEC2 (close)</text>
</g>
<!-- [root] meta.count&#45;boundary (EachMode fixup)&#45;&gt;[root] module.goEC2 (close) -->
<g id="edge1" class="edge">
<title>[root] meta.count&#45;boundary (EachMode fixup)&#45;&gt;[root] module.goEC2 (close)</title>
<path fill="none" stroke="black" d="M1259.21,-360.05C1246.32,-350.94 1230.25,-339.58 1216.3,-329.71"/>
<polygon fill="black" stroke="black" points="1218.11,-326.7 1207.92,-323.79 1214.07,-332.42 1218.11,-326.7"/>
</g>
<!-- [root] module.goEC2 (close)&#45;&gt;[root] module.goEC2.aws_instance.ec2 (expand) -->
<g id="edge2" class="edge">
<title>[root] module.goEC2 (close)&#45;&gt;[root] module.goEC2.aws_instance.ec2 (expand)</title>
<path fill="none" stroke="black" d="M1234.95,-289.2C1267.42,-279.1 1309.81,-265.92 1344.65,-255.08"/>
<polygon fill="black" stroke="black" points="1345.75,-258.4 1354.26,-252.09 1343.67,-251.71 1345.75,-258.4"/>
</g>
<!-- [root] module.goEC2.var.instanceType (expand)&#45;&gt;[root] module.goEC2 (expand) -->
<g id="edge13" class="edge">
<title>[root] module.goEC2.var.instanceType (expand)&#45;&gt;[root] module.goEC2 (expand)</title>
<path fill="none" stroke="black" d="M1409.18,-71.7C1409.18,-63.98 1409.18,-54.71 1409.18,-46.11"/>
<polygon fill="black" stroke="black" points="1412.68,-46.1 1409.18,-36.1 1405.68,-46.1 1412.68,-46.1"/>
</g>
<!-- [root] module.goEC2.var.keyName (expand)&#45;&gt;[root] module.goEC2 (expand) -->
<g id="edge14" class="edge">
<title>[root] module.goEC2.var.keyName (expand)&#45;&gt;[root] module.goEC2 (expand)</title>
<path fill="none" stroke="black" d="M1773.92,-74.03C1695.83,-62.25 1587.5,-45.9 1509.21,-34.09"/>
<polygon fill="black" stroke="black" points="1509.26,-30.56 1498.85,-32.53 1508.22,-37.48 1509.26,-30.56"/>
</g>
<!-- [root] module.goEC2.var.region_and_az (expand)&#45;&gt;[root] module.goEC2 (expand) -->
<g id="edge15" class="edge">
<title>[root] module.goEC2.var.region_and_az (expand)&#45;&gt;[root] module.goEC2 (expand)</title>
<path fill="none" stroke="black" d="M2056.37,-144.23C2071.76,-135.8 2087.51,-123.93 2096.18,-108 2103.83,-93.95 2107.05,-83.74 2096.18,-72 2061.12,-34.14 1761.26,-23.24 1569.45,-20.15"/>
<polygon fill="black" stroke="black" points="1569.32,-16.65 1559.27,-20 1569.21,-23.65 1569.32,-16.65"/>
</g>
<!-- [root] module.goEC2.var.commonTag (expand)&#45;&gt;[root] module.goEC2 (expand) -->
<g id="edge12" class="edge">
<title>[root] module.goEC2.var.commonTag (expand)&#45;&gt;[root] module.goEC2 (expand)</title>
<path fill="none" stroke="black" d="M385.47,-77.18C411.12,-75.37 437.38,-73.59 462.18,-72 745.77,-53.85 1077.37,-36.09 1263.37,-26.43"/>
<polygon fill="black" stroke="black" points="1263.68,-29.92 1273.49,-25.91 1263.32,-22.93 1263.68,-29.92"/>
</g>
<!-- [root] provider[&quot;registry.terraform.io/hashicorp/aws&quot;] (close) -->
<g id="node12" class="node">
<title>[root] provider[&quot;registry.terraform.io/hashicorp/aws&quot;] (close)</title>
<ellipse fill="none" stroke="black" cx="1634.18" cy="-306" rx="291.65" ry="18"/>
<text text-anchor="middle" x="1634.18" y="-302.3" font-family="Times,serif" font-size="14.00">[root] provider[&quot;registry.terraform.io/hashicorp/aws&quot;] (close)</text>
</g>
<!-- [root] provider[&quot;registry.terraform.io/hashicorp/aws&quot;] (close)&#45;&gt;[root] module.goEC2.aws_instance.ec2 (expand) -->
<g id="edge16" class="edge">
<title>[root] provider[&quot;registry.terraform.io/hashicorp/aws&quot;] (close)&#45;&gt;[root] module.goEC2.aws_instance.ec2 (expand)</title>
<path fill="none" stroke="black" d="M1580.29,-288.23C1548.34,-278.29 1507.64,-265.63 1473.95,-255.15"/>
<polygon fill="black" stroke="black" points="1474.78,-251.74 1464.2,-252.12 1472.71,-258.43 1474.78,-251.74"/>
</g>
<!-- [root] root -->
<g id="node13" class="node">
<title>[root] root</title>
<ellipse fill="none" stroke="black" cx="1408.18" cy="-450" rx="58.49" ry="18"/>
<text text-anchor="middle" x="1408.18" y="-446.3" font-family="Times,serif" font-size="14.00">[root] root</text>
</g>
<!-- [root] root&#45;&gt;[root] meta.count&#45;boundary (EachMode fixup) -->
<g id="edge17" class="edge">
<title>[root] root&#45;&gt;[root] meta.count&#45;boundary (EachMode fixup)</title>
<path fill="none" stroke="black" d="M1381.36,-433.98C1364.15,-424.34 1341.5,-411.66 1322.29,-400.9"/>
<polygon fill="black" stroke="black" points="1323.9,-397.79 1313.46,-395.96 1320.48,-403.9 1323.9,-397.79"/>
</g>
<!-- [root] root&#45;&gt;[root] provider[&quot;registry.terraform.io/hashicorp/aws&quot;] (close) -->
<g id="edge18" class="edge">
<title>[root] root&#45;&gt;[root] provider[&quot;registry.terraform.io/hashicorp/aws&quot;] (close)</title>
<path fill="none" stroke="black" d="M1440.36,-434.93C1462.04,-425 1490.98,-410.87 1515.18,-396 1547.62,-376.06 1582.21,-349.53 1605.69,-330.64"/>
<polygon fill="black" stroke="black" points="1607.95,-333.31 1613.51,-324.29 1603.54,-327.88 1607.95,-333.31"/>
</g>
</g>
</svg>
